# xmcd
#
# Track frame offsets: 
#        150
#        13404
#        32473
#        62357
#        79640
#        99677
#        116556
#        129167
#        156906
#        189078
#        209679
#        223055
#
# Disc length: 3177 seconds
#
# Revision: 0
# Processed by: cddbd v1.5.2PL0 Copyright (c) Steve Scherf et al.
# Submitted via: ExactAudioCopy v0.99pb4
#
DISCID=9d0c670c
DTITLE=Wolfpin - Remember
DYEAR=2009
DGENRE=Blues
TTITLE0=01 All My Blues
TTITLE1=02 Remember
TTITLE2=03 Southern Man
TTITLE3=04 Believe
TTITLE4=05 Mighty Cool
TTITLE5=06 Hendrix
TTITLE6=07 T-Rex
TTITLE7=08 Houndog Blues
TTITLE8=09 Angels Fallin' From The Sky
TTITLE9=10 Remember-live
TTITLE10=11 T-Rex-Live
TTITLE11=12 Travel Around acoustic
EXTD=
EXTT0=
EXTT1=
EXTT2=
EXTT3=
EXTT4=
EXTT5=
EXTT6=
EXTT7=
EXTT8=
EXTT9=
EXTT10=
EXTT11=
PLAYORDER=
